<?xml version="1.0" encoding="UTF-8"?>
<svg width="480px" height="480px" viewBox="0 0 480 480" version="1.1" xmlns="http://www.w3.org/2000/svg" xmlns:xlink="http://www.w3.org/1999/xlink">
    <!-- Generator: Sketch 57.1 (83088) - https://sketch.com -->
    <title>插画480@1x</title>
    <desc>Created with Sketch.</desc>
    <defs>
        <linearGradient x1="50%" y1="0%" x2="50%" y2="74.3349301%" id="linearGradient-1">
            <stop stop-color="#EEEEEE" stop-opacity="0.190067745" offset="0%"></stop>
            <stop stop-color="#FFFFFF" offset="100%"></stop>
        </linearGradient>
    </defs>
    <g id="插画480" stroke="none" stroke-width="1" fill="none" fill-rule="evenodd">
        <g id="13录音" transform="translate(20.000000, 32.000000)">
            <g id="bg" fill="#FDC96C">
                <path d="M231.858238,399.420331 C322.306846,418.825809 436.264537,322.879976 438.197623,207.482922 C432.751123,94.3001304 343.399347,-0.805100111 222.14208,0.00513921086 C100.884813,0.815378533 21.0866157,119.893649 15.8026956,207.482922 C9.6355912,307.280257 108.645644,389.250765 231.858238,399.420331 Z" id="1" opacity="0.200000003"></path>
                <path d="M194.117647,415.317432 C298.441178,419.928417 390.528293,324.223948 388.235294,238.900126 C377.37391,127.203317 301.325863,39.3632784 194.117647,47.0951088 C86.9094309,54.8269393 2.84217094e-14,133.811658 2.84217094e-14,223.512415 C2.85822416,295.058588 90.7620466,402.91958 194.117647,415.317432 Z" id="2" opacity="0.300000012"></path>
                <path d="M207.923106,378.451963 C329.175142,399.419058 412.859954,307.792275 412.38677,207.196851 C419.925706,112.254378 303.590533,9.60386334 196.305556,13.0339825 C83.9119772,13.0339825 14.3454351,98.7560049 15.544671,188.495495 C21.6579476,237.084688 48.4126179,360.782064 207.923106,378.451963 Z" id="3" opacity="0.400000006"></path>
                <path d="M193.181639,374.498124 C301.535358,396.142754 386.312217,368.733672 385.130088,207.216628 C361.237788,87.0872792 272.503537,44.9778587 201.882353,45.6749686 C73.4910599,50.7488836 23.7231619,120.224662 18.6346022,207.216628 C27.247047,258.653672 77.0609229,362.210048 193.181639,374.498124 Z" id="4" opacity="0.400000006"></path>
                <path d="M195.43098,335.609755 C298.698602,321.770596 368.302145,258.816499 369.99012,186.110465 C382.856623,81.0748083 305.703532,23.4231811 203.195686,28.8409875 C111.063078,50.3047747 59.4969389,107.241076 46.754193,186.110465 C46.6357003,254.066277 36.5053399,362.539179 195.43098,335.609755 Z" id="5" opacity="0.600000024"></path>
            </g>
            <path d="M176.037925,143.955991 C176.577307,123.812757 192.06702,105.589087 211.843399,101.882067 C237.354262,96.3024747 263.924149,118.006186 263.801059,144.041108 C255.464812,144.230183 247.09064,143.398076 238.81117,144.561119 C233.389183,146.689043 233.786622,154.812612 239.397792,156.202634 C247.526004,157.186134 255.758234,156.477047 263.924149,156.741708 C263.924149,162.42548 263.905298,168.118562 263.886446,173.802113 C255.654216,174.095367 247.336821,173.300942 239.189536,174.530261 C233.294481,175.948877 233.559514,184.38432 239.047593,186.152935 C247.176027,187.69435 255.549977,186.672946 263.782207,186.862243 C263.886446,192.091837 263.886446,197.293058 263.782207,202.522873 C256.089359,202.541714 248.358587,202.125661 240.69435,202.749852 C235.026181,202.920086 232.443047,211.393432 237.675851,214.287187 C246.305519,216.017898 255.24724,214.741144 264,215.223473 C263.290287,226.203115 259.978366,237.589279 251.784062,245.344008 C239.359867,258.990204 217.814083,262.924424 201.283532,254.800855 C186.030243,247.925667 176.236645,231.905728 176,215.289749 C184.75276,214.80742 193.590463,215.772078 202.277131,214.542759 C208.086799,212.726931 206.525651,203.440097 200.734614,202.816128 C192.568476,202.050075 184.336469,202.589149 176.141943,202.522873 C176.141943,197.293058 176.141943,192.091837 176.160794,186.862243 C184.326932,186.795745 192.559161,187.363192 200.734614,186.531085 C206.591965,185.73666 208.011392,176.885163 202.295983,174.738399 C193.713554,173.121177 184.837925,174.199325 176.123091,173.78305 L176.066314,156.751239 C184.251303,156.514729 192.445607,157.063335 200.611523,156.354027 C206.402561,155.975655 207.755673,147.39835 202.636423,144.769257 C193.883885,143.189939 184.875851,144.353203 176.037704,143.955769 L176.037925,143.955991 Z" id="路径" fill="#FFFFFF" fill-rule="nonzero"></path>
            <path d="M143.289275,196.960877 C143.576677,188.262564 156.802384,185.860214 159.842372,194.166939 C161.492055,201.756845 160.148239,209.635311 160.704361,217.346142 C161.130576,238.988679 174.708639,259.327451 193.838145,268.947545 C205.636617,275.326672 219.65936,276.826012 232.727572,274.320854 C257.798024,269.217553 278.475547,246.671788 280.579469,220.931549 C281.598953,211.758486 279.495031,202.268921 281.988238,193.34753 C285.435759,185.962586 298.133368,188.551562 297.790571,196.858287 C297.873989,212.326659 299.366177,228.567948 292.989675,243.132874 C282.599755,269.282599 257.714605,289.509833 229.483601,292.052097 C229.520531,297.900594 229.520531,303.739487 229.400182,309.587983 C241.791707,310.6774 254.303797,309.057135 266.630586,310.528536 C274.573353,312.148801 274.304633,326.853425 265.425582,325.950197 C235.517088,325.96875 205.599253,326.07134 175.690759,325.91309 C167.117576,326.359902 166.913809,312.744914 174.522903,310.630908 C186.895963,308.99187 199.510153,310.547089 211.985096,309.764787 C211.901678,303.832691 211.920143,297.909762 211.920143,291.977665 C185.098125,289.658915 161.232242,271.154537 150.128922,246.85776 C142.510487,231.445485 142.612587,213.742181 143.289057,196.960877 L143.289275,196.960877 Z" id="路径" fill="url(#linearGradient-1)"></path>
        </g>
    </g>
</svg>