<?xml version="1.0" encoding="UTF-8"?>
<svg width="480px" height="480px" viewBox="0 0 480 480" version="1.1" xmlns="http://www.w3.org/2000/svg" xmlns:xlink="http://www.w3.org/1999/xlink">
    <!-- Generator: Sketch 57.1 (83088) - https://sketch.com -->
    <title>插画480@1x</title>
    <desc>Created with Sketch.</desc>
    <defs>
        <linearGradient x1="12.2515839%" y1="50%" x2="100%" y2="50%" id="linearGradient-1">
            <stop stop-color="#EEEEEE" stop-opacity="0.190067745" offset="0%"></stop>
            <stop stop-color="#FFFFFF" offset="100%"></stop>
        </linearGradient>
        <linearGradient x1="-40.7583345%" y1="50%" x2="83.7054574%" y2="50%" id="linearGradient-2">
            <stop stop-color="#EEEEEE" stop-opacity="0.190067745" offset="0%"></stop>
            <stop stop-color="#FFFFFF" offset="100%"></stop>
        </linearGradient>
    </defs>
    <g id="插画480" stroke="none" stroke-width="1" fill="none" fill-rule="evenodd">
        <g id="14密码" transform="translate(20.000000, 32.000000)">
            <g id="bg" fill="#67EEB7">
                <path d="M231.858238,399.420331 C322.306846,418.825809 436.264537,322.879976 438.197623,207.482922 C432.751123,94.3001304 343.399347,-0.805100111 222.14208,0.00513921086 C100.884813,0.815378533 21.0866157,119.893649 15.8026956,207.482922 C9.6355912,307.280257 108.645644,389.250765 231.858238,399.420331 Z" id="1" opacity="0.200000003"></path>
                <path d="M194.117647,415.317432 C298.441178,419.928417 390.528293,324.223948 388.235294,238.900126 C377.37391,127.203317 301.325863,39.3632784 194.117647,47.0951088 C86.9094309,54.8269393 2.84217094e-14,133.811658 2.84217094e-14,223.512415 C2.85822416,295.058588 90.7620466,402.91958 194.117647,415.317432 Z" id="2" opacity="0.300000012"></path>
                <path d="M207.923106,378.451963 C329.175142,399.419058 412.859954,307.792275 412.38677,207.196851 C419.925706,112.254378 303.590533,9.60386334 196.305556,13.0339825 C83.9119772,13.0339825 14.3454351,98.7560049 15.544671,188.495495 C21.6579476,237.084688 48.4126179,360.782064 207.923106,378.451963 Z" id="3" opacity="0.400000006"></path>
                <path d="M193.181639,374.498124 C301.535358,396.142754 386.312217,368.733672 385.130088,207.216628 C361.237788,87.0872792 272.503537,44.9778587 201.882353,45.6749686 C73.4910599,50.7488836 23.7231619,120.224662 18.6346022,207.216628 C27.247047,258.653672 77.0609229,362.210048 193.181639,374.498124 Z" id="4" opacity="0.400000006"></path>
                <path d="M195.43098,335.609755 C298.698602,321.770596 368.302145,258.816499 369.99012,186.110465 C382.856623,81.0748083 305.703532,23.4231811 203.195686,28.8409875 C111.063078,50.3047747 59.4969389,107.241076 46.754193,186.110465 C46.6357003,254.066277 36.5053399,362.539179 195.43098,335.609755 Z" id="5" opacity="0.600000024"></path>
            </g>
            <rect id="矩形" fill="url(#linearGradient-1)" x="194" y="184" width="54" height="93"></rect>
            <path d="M307.983504,175.483128 L308,175.808175 L308,278.500509 C307.611918,287.842517 299.906351,295.143799 290.670993,294.997851 L290.348218,294.989731 L149.651761,294.989731 C140.381608,295.309573 132.573959,288.119333 132.016496,278.825535 L132,278.500488 L132,175.808153 C132.314206,168.244115 137.425659,162.017925 144.262151,159.999455 L295.737849,159.999464 C302.476159,161.988956 307.538618,168.066175 307.983504,175.483128 Z M220.347115,193.645048 L220.000053,193.654124 L219.655448,193.644928 C208.992083,193.45121 200.041244,201.728506 199.314927,212.453981 L199.294166,212.804584 L199.304487,213.189479 C199.554171,219.977584 203.36483,226.1237 209.308413,229.324498 L209.64711,229.502515 L209.64711,257.054037 C209.64711,262.81781 214.282271,267.490254 220.000053,267.490254 C225.624102,267.490254 230.200733,262.969749 230.349276,257.336606 L230.352997,257.054037 L230.352975,229.502536 C236.426944,226.390009 240.366162,220.235287 240.691588,213.394073 L240.70594,213.013314 L240.689057,212.667425 C240.070869,201.856625 231.087402,193.456288 220.347115,193.645048 Z" id="形状结合" fill="#FFFFFF" fill-rule="nonzero"></path>
            <path d="M220.499996,88 C250.298544,88 274.511421,112.009382 274.992699,141.81052 L275,142.715339 L274.999993,158 L259.427993,158 L259.428561,142.715345 L259.423346,142.069047 C259.079576,120.782558 241.784634,103.63299 220.500018,103.63299 C199.21538,103.63299 181.920459,120.782579 181.576689,142.069047 L181.571474,142.715345 L181.570993,158 L165.999993,158 L165.999993,142.715339 C165.999993,112.496869 190.400453,88 220.499996,88 Z" id="形状结合" fill="url(#linearGradient-2)"></path>
        </g>
    </g>
</svg>