<?xml version="1.0" encoding="UTF-8"?>
<svg width="480px" height="480px" viewBox="0 0 480 480" version="1.1" xmlns="http://www.w3.org/2000/svg" xmlns:xlink="http://www.w3.org/1999/xlink">
    <!-- Generator: Sketch 57.1 (83088) - https://sketch.com -->
    <title>插画480@1x</title>
    <desc>Created with Sketch.</desc>
    <defs>
        <linearGradient x1="50%" y1="0%" x2="50%" y2="100%" id="linearGradient-1">
            <stop stop-color="#EEEEEE" stop-opacity="0.190067745" offset="0%"></stop>
            <stop stop-color="#FFFFFF" offset="100%"></stop>
        </linearGradient>
        <linearGradient x1="12.2515839%" y1="50%" x2="100%" y2="50%" id="linearGradient-2">
            <stop stop-color="#EEEEEE" stop-opacity="0.190067745" offset="0%"></stop>
            <stop stop-color="#FFFFFF" offset="100%"></stop>
        </linearGradient>
    </defs>
    <g id="插画480" stroke="none" stroke-width="1" fill="none" fill-rule="evenodd">
        <g id="19删除" transform="translate(20.000000, 32.000000)">
            <g id="bg" fill="#E8748A">
                <path d="M231.858238,399.420331 C322.306846,418.825809 436.264537,322.879976 438.197623,207.482922 C432.751123,94.3001304 343.399347,-0.805100111 222.14208,0.00513921086 C100.884813,0.815378533 21.0866157,119.893649 15.8026956,207.482922 C9.6355912,307.280257 108.645644,389.250765 231.858238,399.420331 Z" id="1" opacity="0.200000003"></path>
                <path d="M194.117647,415.317432 C298.441178,419.928417 390.528293,324.223948 388.235294,238.900126 C377.37391,127.203317 301.325863,39.3632784 194.117647,47.0951088 C86.9094309,54.8269393 2.84217094e-14,133.811658 2.84217094e-14,223.512415 C2.85822416,295.058588 90.7620466,402.91958 194.117647,415.317432 Z" id="2" opacity="0.300000012"></path>
                <path d="M207.923106,378.451963 C329.175142,399.419058 412.859954,307.792275 412.38677,207.196851 C419.925706,112.254378 303.590533,9.60386334 196.305556,13.0339825 C83.9119772,13.0339825 14.3454351,98.7560049 15.544671,188.495495 C21.6579476,237.084688 48.4126179,360.782064 207.923106,378.451963 Z" id="3" opacity="0.400000006"></path>
                <path d="M193.181639,374.498124 C301.535358,396.142754 386.312217,368.733672 385.130088,207.216628 C361.237788,87.0872792 272.503537,44.9778587 201.882353,45.6749686 C73.4910599,50.7488836 23.7231619,120.224662 18.6346022,207.216628 C27.247047,258.653672 77.0609229,362.210048 193.181639,374.498124 Z" id="4" opacity="0.400000006"></path>
                <path d="M195.43098,335.609755 C298.698602,321.770596 368.302145,258.816499 369.99012,186.110465 C382.856623,81.0748083 305.703532,23.4231811 203.195686,28.8409875 C111.063078,50.3047747 59.4969389,107.241076 46.754193,186.110465 C46.6357003,254.066277 36.5053399,362.539179 195.43098,335.609755 Z" id="5" opacity="0.600000024"></path>
            </g>
            <path d="M303.164706,118.571429 L262.082353,118.571429 C262.082353,110.371428 256.376471,101 247.247059,101 L199.317647,101 C191.329412,101 185.623529,110.371428 185.623529,118.571429 L143.4,118.571429 C134.270588,118.571429 124,118.571429 124,127.942857 L124,142 L318,142 L318,127.942857 C318,118.571429 312.294118,118.571429 303.164706,118.571429 L303.164706,118.571429 Z" id="路径" fill="url(#linearGradient-1)"></path>
            <rect id="矩形" fill="url(#linearGradient-2)" x="161" y="168" width="129" height="127"></rect>
            <path d="M303,158 L303,286.657143 C303,298.947286 295.25721,315.66188 280.866682,315.994943 L280.428571,316 L173.214286,316 C158.689571,316 145.27097,300.51442 145.00405,287.064088 L145,286.657143 L145,158 L303,158 Z M187.996721,176.131148 L173.491803,176.131148 L173.491803,290.098361 L187.996721,290.098361 L187.996721,176.131148 Z M229.439344,176.131148 L214.934426,176.131148 L214.934426,290.098361 L229.439344,290.098361 L229.439344,176.131148 Z M274.508197,176.131148 L258.967213,176.131148 L258.967213,290.098361 L274.508197,290.098361 L274.508197,176.131148 Z" id="形状结合" fill="#FFFFFF" fill-rule="nonzero"></path>
        </g>
    </g>
</svg>