<?xml version="1.0" encoding="UTF-8"?>
<svg width="480px" height="480px" viewBox="0 0 480 480" version="1.1" xmlns="http://www.w3.org/2000/svg" xmlns:xlink="http://www.w3.org/1999/xlink">
    <!-- Generator: Sketch 57.1 (83088) - https://sketch.com -->
    <title>插画480@1x</title>
    <desc>Created with Sketch.</desc>
    <defs>
        <linearGradient x1="-43.2559351%" y1="50%" x2="100%" y2="50%" id="linearGradient-1">
            <stop stop-color="#EEEEEE" stop-opacity="0.190067745" offset="0%"></stop>
            <stop stop-color="#FFFFFF" offset="100%"></stop>
        </linearGradient>
        <linearGradient x1="12.2515839%" y1="50%" x2="100%" y2="50%" id="linearGradient-2">
            <stop stop-color="#EEEEEE" stop-opacity="0.190067745" offset="0%"></stop>
            <stop stop-color="#FFFFFF" offset="100%"></stop>
        </linearGradient>
    </defs>
    <g id="插画480" stroke="none" stroke-width="1" fill="none" fill-rule="evenodd">
        <g id="22位置" transform="translate(20.000000, 32.000000)">
            <g id="bg" fill="#48E1F4">
                <path d="M231.858238,399.420331 C322.306846,418.825809 436.264537,322.879976 438.197623,207.482922 C432.751123,94.3001304 343.399347,-0.805100111 222.14208,0.00513921086 C100.884813,0.815378533 21.0866157,119.893649 15.8026956,207.482922 C9.6355912,307.280257 108.645644,389.250765 231.858238,399.420331 Z" id="1" opacity="0.200000003"></path>
                <path d="M194.117647,415.317432 C298.441178,419.928417 390.528293,324.223948 388.235294,238.900126 C377.37391,127.203317 301.325863,39.3632784 194.117647,47.0951088 C86.9094309,54.8269393 0,133.811658 0,223.512415 C2.85822416,295.058588 90.7620466,402.91958 194.117647,415.317432 Z" id="2" opacity="0.300000012"></path>
                <path d="M207.923106,378.451963 C329.175142,399.419058 412.859954,307.792275 412.38677,207.196851 C419.925706,112.254378 303.590533,9.60386334 196.305556,13.0339825 C83.9119772,13.0339825 14.3454351,98.7560049 15.544671,188.495495 C21.6579476,237.084688 48.4126179,360.782064 207.923106,378.451963 Z" id="3" opacity="0.400000006"></path>
                <path d="M193.181639,374.498124 C301.535358,396.142754 386.312217,368.733672 385.130088,207.216628 C361.237788,87.0872792 272.503537,44.9778587 201.882353,45.6749686 C73.4910599,50.7488836 23.7231619,120.224662 18.6346022,207.216628 C27.247047,258.653672 77.0609229,362.210048 193.181639,374.498124 Z" id="4" opacity="0.400000006"></path>
                <path d="M195.43098,335.609755 C298.698602,321.770596 368.302145,258.816499 369.99012,186.110465 C382.856623,81.0748083 305.703532,23.4231811 203.195686,28.8409875 C111.063078,50.3047747 59.4969389,107.241076 46.754193,186.110465 C46.6357003,254.066277 36.5053399,362.539179 195.43098,335.609755 Z" id="5" opacity="0.600000024"></path>
            </g>
            <path d="M214.898387,78 C236.569097,78 258.233508,87.176633 274.499497,101.905022 L274.499635,101.905022 L274.518901,101.905022 C288.961603,118.458416 298,140.538409 298,162.605512 C298,175.476948 294.379408,190.186348 288.961603,201.239062 C283.207586,212.542935 275.213856,222.554703 265.467999,230.663659 L265.467999,230.663659 L265.468,230.663658 L214.898688,284 L162.518986,230.663658 C153.480728,221.45561 144.455693,212.266063 139.037888,201.239061 C133.620106,190.186231 130,175.489768 130,162.605512 C130,138.700722 139.025036,118.458763 155.291024,101.905022 C171.543999,87.1892918 193.227445,78 214.898387,78 Z M214.898387,125.810043 C196.835186,125.810043 182.379238,142.363529 182.379238,160.761403 C182.379238,179.159137 196.835186,193.874913 214.898387,193.874913 C232.961472,193.874913 247.404568,179.171888 247.404568,160.761403 C247.404568,142.376397 232.961588,125.810043 214.898387,125.810043 Z" id="形状结合" fill="#FFFFFF" fill-rule="nonzero"></path>
            <path d="M144,302.006037 C144,295.937346 174.893639,291 213.003132,291 C251.106361,291 282,295.9376 282,302.006037 C282,308.068564 251.106129,313 212.990372,313 C174.893871,313 144,308.068564 144,302.006037 Z" id="路径" fill="url(#linearGradient-1)"></path>
            <circle id="椭圆形" fill="url(#linearGradient-2)" cx="213.5" cy="161.5" r="55.5"></circle>
        </g>
    </g>
</svg>