<?xml version="1.0" encoding="UTF-8"?>
<svg width="480px" height="480px" viewBox="0 0 480 480" version="1.1" xmlns="http://www.w3.org/2000/svg" xmlns:xlink="http://www.w3.org/1999/xlink">
    <!-- Generator: Sketch 57.1 (83088) - https://sketch.com -->
    <title>插画480@1x</title>
    <desc>Created with Sketch.</desc>
    <defs>
        <linearGradient x1="12.2515839%" y1="50%" x2="100%" y2="50%" id="linearGradient-1">
            <stop stop-color="#EEEEEE" stop-opacity="0.190067745" offset="0%"></stop>
            <stop stop-color="#FFFFFF" offset="100%"></stop>
        </linearGradient>
        <linearGradient x1="50%" y1="-24.2193437%" x2="50%" y2="100%" id="linearGradient-2">
            <stop stop-color="#EEEEEE" stop-opacity="0.190067745" offset="0%"></stop>
            <stop stop-color="#FFFFFF" offset="100%"></stop>
        </linearGradient>
    </defs>
    <g id="插画480" stroke="none" stroke-width="1" fill="none" fill-rule="evenodd">
        <g id="24个人资料" transform="translate(20.000000, 32.000000)">
            <g id="bg" fill="#FD6C64">
                <path d="M231.858238,399.420331 C322.306846,418.825809 436.264537,322.879976 438.197623,207.482922 C432.751123,94.3001304 343.399347,-0.805100111 222.14208,0.00513921086 C100.884813,0.815378533 21.0866157,119.893649 15.8026956,207.482922 C9.6355912,307.280257 108.645644,389.250765 231.858238,399.420331 Z" id="1" opacity="0.200000003"></path>
                <path d="M194.117647,415.317432 C298.441178,419.928417 390.528293,324.223948 388.235294,238.900126 C377.37391,127.203317 301.325863,39.3632784 194.117647,47.0951088 C86.9094309,54.8269393 0,133.811658 0,223.512415 C2.85822416,295.058588 90.7620466,402.91958 194.117647,415.317432 Z" id="2" opacity="0.300000012"></path>
                <path d="M207.923106,378.451963 C329.175142,399.419058 412.859954,307.792275 412.38677,207.196851 C419.925706,112.254378 303.590533,9.60386334 196.305556,13.0339825 C83.9119772,13.0339825 14.3454351,98.7560049 15.544671,188.495495 C21.6579476,237.084688 48.4126179,360.782064 207.923106,378.451963 Z" id="3" opacity="0.400000006"></path>
                <path d="M193.181639,374.498124 C301.535358,396.142754 386.312217,368.733672 385.130088,207.216628 C361.237788,87.0872792 272.503537,44.9778587 201.882353,45.6749686 C73.4910599,50.7488836 23.7231619,120.224662 18.6346022,207.216628 C27.247047,258.653672 77.0609229,362.210048 193.181639,374.498124 Z" id="4" opacity="0.400000006"></path>
                <path d="M195.43098,335.609755 C298.698602,321.770596 368.302145,258.816499 369.99012,186.110465 C382.856623,81.0748083 305.703532,23.4231811 203.195686,28.8409875 C111.063078,50.3047747 59.4969389,107.241076 46.754193,186.110465 C46.6357003,254.066277 36.5053399,362.539179 195.43098,335.609755 Z" id="5" opacity="0.600000024"></path>
            </g>
            <rect id="矩形" fill="url(#linearGradient-1)" x="220" y="197" width="67" height="67"></rect>
            <path d="M131.502638,133.011003 L137.728472,133.01126 L137.728938,154.627079 C137.742235,155.093493 138.106363,163.842159 146.716603,164.097298 L147.075111,164.102959 L148.814722,164.10798 C151.704884,164.103121 156.793978,164.093559 162.496259,164.1066 L163.068472,164.10798 L165.622583,164.102959 C174.875731,163.800539 174.566447,155.078799 174.557134,154.858044 L174.556944,154.853781 L174.556944,133.01126 L244.448083,133.01126 L244.448083,154.853781 C244.448083,154.853781 244.026572,163.571692 253.031435,164.087211 L253.382444,164.102959 L255.936556,164.10798 L263.065944,164.102192 L270.195333,164.10798 L271.929917,164.102959 C280.893518,164.083402 281.267635,155.099882 281.281118,154.627079 L281.281583,154.607739 L281.769278,133.01126 L287.901863,133.011008 C288.136914,132.995544 299.42191,132.317384 299.9095,144.630477 C299.977375,145.082391 299.99638,145.371616 299.999502,145.424942 L300,145.43388 L299.979889,277.543472 C299.979889,289.759419 287.725671,289.997506 287.464943,290.001189 L131.540084,290.001189 C131.282026,289.997545 119.279586,289.764458 119.024244,277.92929 L119.020111,277.543472 L119,145.43388 C119,145.43388 119.020111,145.132604 119.095528,144.625456 C119.588038,132.318695 130.87064,132.995393 131.502638,133.011003 Z M174.587111,181.853145 C164.400833,181.853145 155.69775,188.742327 155.69775,201.893031 C155.69775,210.479401 159.684778,219.206367 164.963944,224.589167 C167.020306,229.976989 163.339972,231.975454 162.565694,232.261667 C152.034291,236.063748 139.699869,242.961833 139.41771,249.808201 L139.412778,250.047002 L139.412778,263.599408 L209.751389,263.599408 L209.751389,250.047002 C209.751389,242.9168 197.186972,235.9523 186.005194,232.261667 C185.497389,232.095965 182.274583,230.644818 184.260556,224.528912 C189.509556,219.136069 193.516694,210.444252 193.516694,201.893031 C193.516694,188.742327 184.758306,181.853145 174.587111,181.853145 Z M271.864556,237.062 L271.864556,237.062 L232.316056,237.062 C229.283084,237.062 226.480503,238.677976 224.964017,241.301206 C223.447531,243.924437 223.447531,247.156389 224.964017,249.77962 C226.431584,252.318229 229.103611,253.913521 232.023297,254.013802 L232.316056,254.018826 L271.864556,254.018826 C274.946782,254.093744 277.82753,252.494354 279.390706,249.840308 C280.953882,247.186263 280.953882,243.894563 279.390706,241.240518 C277.92838,238.757701 275.313007,237.197845 272.4583,237.06824 L272.162169,237.059956 Z M271.864556,203.479752 L232.316056,203.479752 C227.627488,203.479752 223.826653,207.275666 223.826653,211.958165 C223.826653,216.640663 227.627488,220.436578 232.316056,220.436578 L232.316056,220.436578 L271.864556,220.436578 C276.414032,220.245018 280.003583,216.505788 280.003583,211.958165 C280.003583,207.410541 276.414032,203.671312 271.864556,203.479752 L271.864556,203.479752 Z" id="形状结合" fill="#FFFFFF" fill-rule="nonzero"></path>
            <path d="M263.450956,116 C269.599332,116 275,122.164656 275,129.768748 L275,129.768748 L275,145.236338 C275,152.840431 270.018654,159 263.870278,159 C257.726955,159 252.740557,152.84043 252.740557,145.236338 L252.740557,145.236338 L252.740557,129.768748 C252.740557,122.164656 257.30258,116 263.450956,116 Z M156.12467,116 C162.273045,116 167.259444,122.164656 167.259444,129.768748 L167.259444,129.768748 L167.259444,145.236338 C167.259444,152.840431 162.273045,159 156.12467,159 C149.976294,159 145,152.84043 145,145.236338 L145,145.236338 L145,129.768748 C145,122.164656 149.976294,116 156.12467,116 Z" id="形状结合" fill="url(#linearGradient-2)"></path>
        </g>
    </g>
</svg>