<?xml version="1.0" encoding="UTF-8"?>
<svg width="480px" height="480px" viewBox="0 0 480 480" version="1.1" xmlns="http://www.w3.org/2000/svg" xmlns:xlink="http://www.w3.org/1999/xlink">
    <!-- Generator: Sketch 57.1 (83088) - https://sketch.com -->
    <title>插画480@1x</title>
    <desc>Created with Sketch.</desc>
    <defs>
        <linearGradient x1="12.2515839%" y1="50%" x2="100%" y2="50%" id="linearGradient-1">
            <stop stop-color="#EEEEEE" stop-opacity="0.190067745" offset="0%"></stop>
            <stop stop-color="#FFFFFF" offset="100%"></stop>
        </linearGradient>
        <linearGradient x1="12.2515839%" y1="50%" x2="100%" y2="50%" id="linearGradient-2">
            <stop stop-color="#EEEEEE" stop-opacity="0.190067745" offset="0%"></stop>
            <stop stop-color="#FFFFFF" offset="100%"></stop>
        </linearGradient>
    </defs>
    <g id="插画480" stroke="none" stroke-width="1" fill="none" fill-rule="evenodd">
        <g id="10档案" transform="translate(20.000000, 32.000000)">
            <g id="bg" fill="#EA7F93">
                <path d="M231.858238,399.420331 C322.306846,418.825809 436.264537,322.879976 438.197623,207.482922 C432.751123,94.3001304 343.399347,-0.805100111 222.14208,0.00513921086 C100.884813,0.815378533 21.0866157,119.893649 15.8026956,207.482922 C9.6355912,307.280257 108.645644,389.250765 231.858238,399.420331 Z" id="1" opacity="0.200000003"></path>
                <path d="M194.117647,415.317432 C298.441178,419.928417 390.528293,324.223948 388.235294,238.900126 C377.37391,127.203317 301.325863,39.3632784 194.117647,47.0951088 C86.9094309,54.8269393 2.84217094e-14,133.811658 2.84217094e-14,223.512415 C2.85822416,295.058588 90.7620466,402.91958 194.117647,415.317432 Z" id="2" opacity="0.300000012"></path>
                <path d="M207.923106,378.451963 C329.175142,399.419058 412.859954,307.792275 412.38677,207.196851 C419.925706,112.254378 303.590533,9.60386334 196.305556,13.0339825 C83.9119772,13.0339825 14.3454351,98.7560049 15.544671,188.495495 C21.6579476,237.084688 48.4126179,360.782064 207.923106,378.451963 Z" id="3" opacity="0.400000006"></path>
                <path d="M193.181639,374.498124 C301.535358,396.142754 386.312217,368.733672 385.130088,207.216628 C361.237788,87.0872792 272.503537,44.9778587 201.882353,45.6749686 C73.4910599,50.7488836 23.7231619,120.224662 18.6346022,207.216628 C27.247047,258.653672 77.0609229,362.210048 193.181639,374.498124 Z" id="4" opacity="0.400000006"></path>
                <path d="M195.43098,335.609755 C298.698602,321.770596 368.302145,258.816499 369.99012,186.110465 C382.856623,81.0748083 305.703532,23.4231811 203.195686,28.8409875 C111.063078,50.3047747 59.4969389,107.241076 46.754193,186.110465 C46.6357003,254.066277 36.5053399,362.539179 195.43098,335.609755 Z" id="5" opacity="0.600000024"></path>
            </g>
            <path d="M287.931521,137.498928 C288.188297,137.500301 300,137.626636 300,149.249456 L300,149.249456 L299.49697,161 L134,161 L134,149.249456 C134,137.498913 146.072727,137.498913 146.072727,137.498913 Z M264.997156,113.998319 C265.684522,114.014276 277.133233,114.546184 276.640815,132.276449 L276.640815,132.276449 L157.34375,132.276449 C157.34375,114.546184 168.807233,114.014276 169.495042,113.998319 Z" id="形状结合" fill="url(#linearGradient-1)"></path>
            <rect id="矩形" fill="url(#linearGradient-2)" x="158" y="197" width="127" height="52"></rect>
            <path d="M319.467762,156 L326.503012,163.04698 C333.538261,170.09396 338.56344,172.107383 336.553368,186.704698 C333.538262,201.805369 319.97028,282.845638 317.960209,293.919463 C315.44762,306 303.387192,306 303.387192,306 L303.387192,306 L138.058826,306 C138.058826,306 125.49588,306 123.485809,293.919463 C121.475738,282.845638 107.907756,201.302013 104.892649,186.704698 C101.877542,172.107382 106.902721,170.09396 113.93797,163.04698 L113.93797,163.04698 L120.97322,156 L120.97322,175.127517 L319.467762,175.127517 L319.467762,156 Z M188.125118,202.551724 L171.311111,202.551724 L171.311509,226.556272 C171.323566,227.288413 171.701378,238.758621 183.53948,238.758621 L183.53948,238.758621 L254.871631,238.758621 C267.1,238.758621 267.1,226.51967 267.1,226.51967 L267.1,226.51967 L267.1,202.551724 L250.285993,202.551724 L250.285993,221.930063 L188.125118,221.930063 L188.125118,202.551724 Z" id="形状结合" fill="#FFFFFF" fill-rule="nonzero"></path>
        </g>
    </g>
</svg>