<?xml version="1.0" encoding="UTF-8"?>
<svg width="480px" height="480px" viewBox="0 0 480 480" version="1.1" xmlns="http://www.w3.org/2000/svg" xmlns:xlink="http://www.w3.org/1999/xlink">
    <!-- Generator: Sketch 57.1 (83088) - https://sketch.com -->
    <title>插画480@1x</title>
    <desc>Created with Sketch.</desc>
    <defs>
        <linearGradient x1="0%" y1="50%" x2="50%" y2="50%" id="linearGradient-1">
            <stop stop-color="#FFFFFF" stop-opacity="0.233828671" offset="0%"></stop>
            <stop stop-color="#FFFFFF" offset="100%"></stop>
        </linearGradient>
    </defs>
    <g id="插画480" stroke="none" stroke-width="1" fill="none" fill-rule="evenodd">
        <g id="5记录" transform="translate(20.000000, 32.000000)">
            <g id="bg" fill="#65E57D">
                <path d="M231.858238,399.420331 C322.306846,418.825809 436.264537,322.879976 438.197623,207.482922 C432.751123,94.3001304 343.399347,-0.805100111 222.14208,0.00513921086 C100.884813,0.815378533 21.0866157,119.893649 15.8026956,207.482922 C9.6355912,307.280257 108.645644,389.250765 231.858238,399.420331 Z" id="1" opacity="0.200000003"></path>
                <path d="M194.117647,415.317432 C298.441178,419.928417 390.528293,324.223948 388.235294,238.900126 C377.37391,127.203317 301.325863,39.3632784 194.117647,47.0951088 C86.9094309,54.8269393 2.84217094e-14,133.811658 2.84217094e-14,223.512415 C2.85822416,295.058588 90.7620466,402.91958 194.117647,415.317432 Z" id="2" opacity="0.300000012"></path>
                <path d="M207.923106,378.451963 C329.175142,399.419058 412.859954,307.792275 412.38677,207.196851 C419.925706,112.254378 303.590533,9.60386334 196.305556,13.0339825 C83.9119772,13.0339825 14.3454351,98.7560049 15.544671,188.495495 C21.6579476,237.084688 48.4126179,360.782064 207.923106,378.451963 Z" id="3" opacity="0.400000006"></path>
                <path d="M193.181639,374.498124 C301.535358,396.142754 386.312217,368.733672 385.130088,207.216628 C361.237788,87.0872792 272.503537,44.9778587 201.882353,45.6749686 C73.4910599,50.7488836 23.7231619,120.224662 18.6346022,207.216628 C27.247047,258.653672 77.0609229,362.210048 193.181639,374.498124 Z" id="4" opacity="0.400000006"></path>
                <path d="M195.43098,335.609755 C298.698602,321.770596 368.302145,258.816499 369.99012,186.110465 C382.856623,81.0748083 305.703532,23.4231811 203.195686,28.8409875 C111.063078,50.3047747 59.4969389,107.241076 46.754193,186.110465 C46.6357003,254.066277 36.5053399,362.539179 195.43098,335.609755 Z" id="5" opacity="0.600000024"></path>
            </g>
            <rect id="矩形" fill="url(#linearGradient-1)" opacity="0.5" x="143" y="150" width="155" height="140"></rect>
            <path d="M290.888889,119 L270.777778,119 C270.777778,130.115789 261.727778,139.210526 250.666667,139.210526 L190.333333,139.210526 C179.272222,139.210526 170.222222,130.115789 170.222222,119 L150.111111,119 C139.05,119 130,128.094737 130,139.210526 L130,290.789474 C130,301.905263 139.05,311 150.111111,311 L290.888889,311 C301.95,311 311,301.905263 311,290.789474 L311,139.210526 C311,128.094737 301.95,119 290.888889,119 Z M275.006857,272.081081 L168.578857,272.081081 C163.004057,272.081081 158.442857,267.410811 158.442857,261.702703 C158.442857,255.994594 163.004057,251.324324 168.578857,251.324324 L275.006857,251.324324 C280.581657,251.324324 285.142857,255.994595 285.142857,261.702703 C285.142857,267.410811 280.581657,272.081081 275.006857,272.081081 Z M275.006857,230.567568 L168.578857,230.567568 C163.004057,230.567568 158.442857,225.897297 158.442857,220.189189 C158.442857,214.481081 163.004057,209.810811 168.578857,209.810811 L275.006857,209.810811 C280.581657,209.810811 285.142857,214.481081 285.142857,220.189189 C285.142857,225.897298 280.581657,230.567568 275.006857,230.567568 Z M275.006857,189.054054 L168.578857,189.054054 C163.004057,189.054054 158.442857,184.383784 158.442857,178.675676 C158.442857,172.967568 163.004057,168.297297 168.578857,168.297297 L275.006857,168.297297 C280.581657,168.297297 285.142857,172.967568 285.142857,178.675676 C285.142857,184.383784 280.581657,189.054054 275.006857,189.054054 Z" id="形状" fill="#FFFFFF" fill-rule="nonzero"></path>
            <path d="M251,127 L191,127 C185.5,127 181,122.95 181,118 C181,113.05 185.5,109 191,109 L251,109 C256.5,109 261,113.05 261,118 C261,122.95 256.5,127 251,127 Z" id="路径" fill="#FFFFFF" fill-rule="nonzero" opacity="0.600000024"></path>
        </g>
    </g>
</svg>