<?xml version="1.0" encoding="UTF-8"?>
<svg width="480px" height="480px" viewBox="0 0 480 480" version="1.1" xmlns="http://www.w3.org/2000/svg" xmlns:xlink="http://www.w3.org/1999/xlink">
    <!-- Generator: Sketch 57.1 (83088) - https://sketch.com -->
    <title>插画480@1x</title>
    <desc>Created with Sketch.</desc>
    <defs>
        <linearGradient x1="12.2515839%" y1="50%" x2="100%" y2="50%" id="linearGradient-1">
            <stop stop-color="#EEEEEE" stop-opacity="0.190067745" offset="0%"></stop>
            <stop stop-color="#FFFFFF" offset="100%"></stop>
        </linearGradient>
    </defs>
    <g id="插画480" stroke="none" stroke-width="1" fill="none" fill-rule="evenodd">
        <g id="6设置" transform="translate(20.000000, 32.000000)">
            <g id="bg" fill="#FFC4C2">
                <path d="M231.858238,399.420331 C322.306846,418.825809 436.264537,322.879976 438.197623,207.482922 C432.751123,94.3001304 343.399347,-0.805100111 222.14208,0.00513921086 C100.884813,0.815378533 21.0866157,119.893649 15.8026956,207.482922 C9.6355912,307.280257 108.645644,389.250765 231.858238,399.420331 Z" id="1" opacity="0.200000003"></path>
                <path d="M194.117647,415.317432 C298.441178,419.928417 390.528293,324.223948 388.235294,238.900126 C377.37391,127.203317 301.325863,39.3632784 194.117647,47.0951088 C86.9094309,54.8269393 2.84217094e-14,133.811658 2.84217094e-14,223.512415 C2.85822416,295.058588 90.7620466,402.91958 194.117647,415.317432 Z" id="2" opacity="0.300000012"></path>
                <path d="M207.923106,378.451963 C329.175142,399.419058 412.859954,307.792275 412.38677,207.196851 C419.925706,112.254378 303.590533,9.60386334 196.305556,13.0339825 C83.9119772,13.0339825 14.3454351,98.7560049 15.544671,188.495495 C21.6579476,237.084688 48.4126179,360.782064 207.923106,378.451963 Z" id="3" opacity="0.400000006"></path>
                <path d="M193.181639,374.498124 C301.535358,396.142754 386.312217,368.733672 385.130088,207.216628 C361.237788,87.0872792 272.503537,44.9778587 201.882353,45.6749686 C73.4910599,50.7488836 23.7231619,120.224662 18.6346022,207.216628 C27.247047,258.653672 77.0609229,362.210048 193.181639,374.498124 Z" id="4" opacity="0.400000006"></path>
                <path d="M195.43098,335.609755 C298.698602,321.770596 368.302145,258.816499 369.99012,186.110465 C382.856623,81.0748083 305.703532,23.4231811 203.195686,28.8409875 C111.063078,50.3047747 59.4969389,107.241076 46.754193,186.110465 C46.6357003,254.066277 36.5053399,362.539179 195.43098,335.609755 Z" id="5" opacity="0.600000024"></path>
            </g>
            <circle id="椭圆形" fill="url(#linearGradient-1)" cx="216.5" cy="208.5" r="50.5"></circle>
            <path d="M325.180553,193.27144 C324.317977,188.503118 319.703195,183.648881 314.915899,182.574934 L311.336209,181.758735 C302.926093,179.224222 295.464811,173.682658 290.720643,165.520666 C285.976475,157.315715 284.855126,147.993861 286.925309,139.445248 L286.925309,139.445248 L288.046658,136.094535 C289.469908,131.455086 287.61537,125.054366 283.863164,121.875485 C283.863164,121.875485 280.499118,119.040266 271.010782,113.584619 C261.522447,108.171929 257.425211,106.668404 257.425211,106.668404 C252.810429,104.993048 246.34111,106.582488 242.977063,110.14799 L240.475593,112.811377 C234.092531,118.825477 225.5099,122.476895 216.021564,122.476895 C206.533229,122.476895 197.86434,118.782519 191.481278,112.725462 L189.066065,110.14799 C185.745148,106.582488 179.232699,104.993048 174.617918,106.668404 C174.617918,106.668404 170.477553,108.171929 160.989218,113.584619 C151.500882,119.083224 148.179965,121.918443 148.179965,121.918443 C144.427759,125.054366 142.573221,131.412129 143.996471,136.094535 L145.031562,139.488205 C147.058616,148.036819 145.980396,157.315715 141.236228,165.520666 C136.49206,173.725616 128.944521,179.310137 120.491276,181.801693 L117.040972,182.574934 C112.296805,183.648881 107.638894,188.46016 106.776318,193.27144 C106.776318,193.27144 106,197.567226 106,208.478521 C106,219.389816 106.776318,223.685602 106.776318,223.685602 C107.638894,228.496882 112.253676,233.308161 117.040972,234.382108 L120.405019,235.155349 L120.405019,235.155349 C128.858263,237.646905 136.448932,243.231426 141.193099,251.479334 C145.937267,259.684285 147.058616,269.006139 144.988434,277.554752 L144.988434,277.554752 L143.996471,280.862507 C142.573221,285.501956 144.427759,291.902676 148.179965,295.081557 C148.179965,295.081557 151.544011,297.916776 161.032347,303.372423 C170.520682,308.828071 174.617918,310.288638 174.617918,310.288638 C179.232699,311.963995 185.702019,310.374554 189.066065,306.809052 L191.438149,304.274538 C197.86434,298.217481 206.4901,294.523105 216.021564,294.523105 C225.553029,294.523105 234.221917,298.260439 240.604979,304.317496 L240.604979,304.317496 L242.977063,306.85201 C246.297981,310.417512 252.810429,312.006952 257.425211,310.331596 C257.425211,310.331596 261.565575,308.828071 271.053911,303.415381 C280.542247,297.959734 283.863164,295.124515 283.863164,295.124515 C287.61537,291.988592 289.469908,285.587871 288.046658,280.905465 L287.011566,277.468837 C284.984513,268.963181 286.062733,259.684285 290.806901,251.522292 C295.551068,243.317342 303.141737,237.689863 311.594981,235.198307 L311.594981,235.198307 L314.959028,234.425066 C319.703195,233.351119 324.361106,228.53984 325.223682,223.72856 C325.223682,223.72856 326,219.432774 326,208.521479 C325.956871,197.567226 325.180553,193.27144 325.180553,193.27144 L325.180553,193.27144 Z M217.294118,253.911392 C193.022731,253.911392 173.294118,234.165366 173.294118,209.775769 C173.294118,185.42957 192.979467,165.683544 217.294118,165.683544 C241.565504,165.683544 261.294118,185.42957 261.294118,209.819167 C261.250853,234.165366 241.565504,253.911392 217.294118,253.911392 L217.294118,253.911392 Z" id="形状" fill="#FFFFFF" fill-rule="nonzero"></path>
        </g>
    </g>
</svg>