<?xml version="1.0" encoding="UTF-8"?>
<svg width="480px" height="480px" viewBox="0 0 480 480" version="1.1" xmlns="http://www.w3.org/2000/svg" xmlns:xlink="http://www.w3.org/1999/xlink">
    <!-- Generator: Sketch 57.1 (83088) - https://sketch.com -->
    <title>插画480@1x</title>
    <desc>Created with Sketch.</desc>
    <defs>
        <linearGradient x1="-16.4807116%" y1="50%" x2="100%" y2="50%" id="linearGradient-1">
            <stop stop-color="#FFFFFF" stop-opacity="0.201267483" offset="0%"></stop>
            <stop stop-color="#FFFFFF" offset="100%"></stop>
        </linearGradient>
    </defs>
    <g id="插画480" stroke="none" stroke-width="1" fill="none" fill-rule="evenodd">
        <g id="4购物车" transform="translate(20.000000, 32.000000)">
            <g id="bg" fill="#E8748A">
                <path d="M231.858238,399.420331 C322.306846,418.825809 436.264537,322.879976 438.197623,207.482922 C432.751123,94.3001304 343.399347,-0.805100111 222.14208,0.00513921086 C100.884813,0.815378533 21.0866157,119.893649 15.8026956,207.482922 C9.6355912,307.280257 108.645644,389.250765 231.858238,399.420331 Z" id="1" opacity="0.200000003"></path>
                <path d="M194.117647,415.317432 C298.441178,419.928417 390.528293,324.223948 388.235294,238.900126 C377.37391,127.203317 301.325863,39.3632784 194.117647,47.0951088 C86.9094309,54.8269393 2.84217094e-14,133.811658 2.84217094e-14,223.512415 C2.85822416,295.058588 90.7620466,402.91958 194.117647,415.317432 Z" id="2" opacity="0.300000012"></path>
                <path d="M207.923106,378.451963 C329.175142,399.419058 412.859954,307.792275 412.38677,207.196851 C419.925706,112.254378 303.590533,9.60386334 196.305556,13.0339825 C83.9119772,13.0339825 14.3454351,98.7560049 15.544671,188.495495 C21.6579476,237.084688 48.4126179,360.782064 207.923106,378.451963 Z" id="3" opacity="0.400000006"></path>
                <path d="M193.181639,374.498124 C301.535358,396.142754 386.312217,368.733672 385.130088,207.216628 C361.237788,87.0872792 272.503537,44.9778587 201.882353,45.6749686 C73.4910599,50.7488836 23.7231619,120.224662 18.6346022,207.216628 C27.247047,258.653672 77.0609229,362.210048 193.181639,374.498124 Z" id="4" opacity="0.400000006"></path>
                <path d="M195.43098,335.609755 C298.698602,321.770596 368.302145,258.816499 369.99012,186.110465 C382.856623,81.0748083 305.703532,23.4231811 203.195686,28.8409875 C111.063078,50.3047747 59.4969389,107.241076 46.754193,186.110465 C46.6357003,254.066277 36.5053399,362.539179 195.43098,335.609755 Z" id="5" opacity="0.600000024"></path>
            </g>
            <path d="M265.301325,280.438503 C268.090508,280.438503 270.769592,280.950089 273.338576,281.973262 C275.907561,282.996435 278.109547,284.421569 279.944536,286.248663 C281.779525,288.075758 283.247517,290.231729 284.34851,292.716578 C285.449503,295.201426 286,297.832442 286,300.609626 C286,303.386809 285.449503,306.017825 284.34851,308.502674 C283.247517,310.987522 281.779525,313.143494 279.944536,314.970588 C278.109547,316.797683 275.907561,318.259358 273.338576,319.355615 C270.769592,320.451872 268.090508,321 265.301325,321 C262.512141,321 259.869757,320.451872 257.374172,319.355615 C254.878587,318.259358 252.7133,316.797683 250.878311,314.970588 C249.043322,313.143494 247.575331,310.987522 246.474338,308.502674 C245.373344,306.017825 244.822848,303.386809 244.822848,300.609626 C244.822848,297.832442 245.373344,295.201426 246.474338,292.716578 C247.575331,290.231729 249.043322,288.075758 250.878311,286.248663 C252.7133,284.421569 254.878587,282.996435 257.374172,281.973262 C259.869757,280.950089 262.512141,280.438503 265.301325,280.438503 Z M173.698675,280 C176.487859,280 179.130243,280.511586 181.625828,281.534759 C184.121413,282.557932 186.2867,283.983066 188.121689,285.81016 C189.956678,287.637255 191.424669,289.793226 192.525662,292.278075 C193.626656,294.762923 194.177152,297.393939 194.177152,300.171123 C194.177152,302.948307 193.626656,305.579323 192.525662,308.064171 C191.424669,310.54902 189.956678,312.704991 188.121689,314.532086 C186.2867,316.35918 184.121413,317.820856 181.625828,318.917112 C179.130243,320.013369 176.487859,320.561497 173.698675,320.561497 C170.762693,320.561497 168.046909,320.013369 165.551325,318.917112 C163.05574,317.820856 160.890453,316.35918 159.055464,314.532086 C157.220475,312.704991 155.752483,310.54902 154.65149,308.064171 C153.550497,305.579323 153,302.948307 153,300.171123 C153,297.393939 153.550497,294.762923 154.65149,292.278075 C155.752483,289.793226 157.220475,287.637255 159.055464,285.81016 C160.890453,283.983066 163.05574,282.557932 165.551325,281.534759 C168.046909,280.511586 170.762693,280 173.698675,280 Z" id="形状结合" fill="url(#linearGradient-1)" fill-rule="nonzero"></path>
            <path d="M302.264888,156.928571 C306.370838,156.928571 309.560282,157.471574 311.833219,158.55758 C314.106155,159.643586 315.719207,160.982993 316.672374,162.575802 C317.625542,164.16861 318.065465,165.870019 317.992144,167.680029 C317.918824,169.490039 317.662202,171.046647 317.222279,172.349854 C316.782355,173.653061 315.829188,176.331876 314.362777,180.386297 C312.896367,184.440719 311.319975,188.893343 309.633602,193.744169 C307.94723,198.594995 306.260857,203.409621 304.574485,208.188047 C302.888113,212.966472 301.531683,216.731293 300.505195,219.482507 C298.598861,225.274538 296.215943,229.29276 293.356442,231.537172 C290.496941,233.781584 286.940895,234.90379 282.688303,234.90379 L274.989646,234.90379 L260.912102,234.90379 L242.435326,234.90379 L221.758933,234.90379 L167.208449,234.90379 L170.287912,254.451895 L281.368533,254.451895 C288.407306,254.451895 291.926692,257.420311 291.926692,263.357143 C291.926692,266.253158 291.230146,268.750972 289.837056,270.850583 C288.443966,272.950194 285.694445,274 281.588495,274 L271.030337,274 L250.793867,274 L225.278319,274 L199.542809,274 L178.206531,274 L166.328603,274 C163.395781,274 160.939543,273.348397 158.959888,272.04519 C156.980234,270.741983 155.330522,269.040573 154.010752,266.940962 C152.690982,264.841351 151.627834,262.560739 150.821308,260.099125 C150.014782,257.637512 149.391558,255.3207 148.951635,253.148688 C148.804993,252.279883 148.40173,250.180272 147.741846,246.849854 C147.081961,243.519436 146.275435,239.356414 145.322268,234.360787 C144.369101,229.36516 143.305953,223.79033 142.132824,217.636297 C140.959695,211.482264 139.786567,205.292031 138.613438,199.065598 C135.827257,184.440719 132.674474,168.150632 129.155088,150.195335 L112.657966,150.195335 C110.45835,150.195335 108.625336,149.652332 107.158926,148.566327 C105.692515,147.480321 104.482726,146.177114 103.529559,144.656706 C102.576392,143.136297 101.916507,141.507289 101.549904,139.769679 C101.183301,138.03207 101,136.439261 101,134.991254 C101,132.095238 101.989827,129.706025 103.969482,127.823615 C105.949137,125.941205 108.625336,125 111.998081,125 L116.617275,125 L121.23647,125 L126.73551,125 L134.214206,125 C137.147027,125 139.493285,125.434402 141.252978,126.303207 C143.012671,127.172012 144.405761,128.258017 145.432248,129.561224 C146.458736,130.864431 147.191941,132.240039 147.631865,133.688047 C148.071788,135.136054 148.438391,136.366861 148.731673,137.380466 C149.024955,138.538873 149.318237,140.167881 149.611519,142.267493 C149.904802,144.367104 150.198084,146.502915 150.491366,148.674927 C150.931289,151.281341 151.371212,154.032556 151.811136,156.928571 L302.264888,156.928571 L302.264888,156.928571 Z" id="路径" fill="#FFFFFF" fill-rule="nonzero"></path>
            <path d="M296,145 L229,145 L253.163934,121.233137 C255.970856,118.47234 259.052368,117.061933 262.40847,117.001915 C265.764572,116.941898 268.846084,118.292288 271.653005,121.053085 L296,145 Z" id="路径备份" fill="#FFFFFF" fill-rule="nonzero" opacity="0.5"></path>
            <path d="M286,150 L205,150 L234.213115,121.140238 C237.606557,117.787841 241.331967,116.075204 245.389344,116.002326 C249.446721,115.929448 253.172131,117.569207 256.565574,120.921604 L286,150 Z" id="路径" fill="#FFFFFF" fill-rule="nonzero" opacity="0.800000012"></path>
        </g>
    </g>
</svg>