<?xml version="1.0" encoding="UTF-8"?>
<svg width="480px" height="480px" viewBox="0 0 480 480" version="1.1" xmlns="http://www.w3.org/2000/svg" xmlns:xlink="http://www.w3.org/1999/xlink">
    <!-- Generator: Sketch 57.1 (83088) - https://sketch.com -->
    <title>插画480@1x</title>
    <desc>Created with Sketch.</desc>
    <defs>
        <linearGradient x1="0%" y1="50%" x2="100%" y2="50%" id="linearGradient-1">
            <stop stop-color="#FFFFFF" stop-opacity="0.206075175" offset="0%"></stop>
            <stop stop-color="#FFFFFF" offset="100%"></stop>
        </linearGradient>
        <linearGradient x1="0%" y1="50%" x2="58.5722479%" y2="50%" id="linearGradient-2">
            <stop stop-color="#FFFFFF" stop-opacity="0.199874344" offset="0%"></stop>
            <stop stop-color="#FFFFFF" offset="100%"></stop>
        </linearGradient>
    </defs>
    <g id="插画480" stroke="none" stroke-width="1" fill="none" fill-rule="evenodd">
        <g id="3赠送" transform="translate(20.000000, 32.000000)">
            <g id="bg" fill="#E8748A">
                <path d="M231.858238,399.420331 C322.306846,418.825809 436.264537,322.879976 438.197623,207.482922 C432.751123,94.3001304 343.399347,-0.805100111 222.14208,0.00513921086 C100.884813,0.815378533 21.0866157,119.893649 15.8026956,207.482922 C9.6355912,307.280257 108.645644,389.250765 231.858238,399.420331 Z" id="1" opacity="0.200000003"></path>
                <path d="M194.117647,415.317432 C298.441178,419.928417 390.528293,324.223948 388.235294,238.900126 C377.37391,127.203317 301.325863,39.3632784 194.117647,47.0951088 C86.9094309,54.8269393 2.84217094e-14,133.811658 2.84217094e-14,223.512415 C2.85822416,295.058588 90.7620466,402.91958 194.117647,415.317432 Z" id="2" opacity="0.300000012"></path>
                <path d="M207.923106,378.451963 C329.175142,399.419058 412.859954,307.792275 412.38677,207.196851 C419.925706,112.254378 303.590533,9.60386334 196.305556,13.0339825 C83.9119772,13.0339825 14.3454351,98.7560049 15.544671,188.495495 C21.6579476,237.084688 48.4126179,360.782064 207.923106,378.451963 Z" id="3" opacity="0.400000006"></path>
                <path d="M193.181639,374.498124 C301.535358,396.142754 386.312217,368.733672 385.130088,207.216628 C361.237788,87.0872792 272.503537,44.9778587 201.882353,45.6749686 C73.4910599,50.7488836 23.7231619,120.224662 18.6346022,207.216628 C27.247047,258.653672 77.0609229,362.210048 193.181639,374.498124 Z" id="4" opacity="0.400000006"></path>
                <path d="M195.43098,335.609755 C298.698602,321.770596 368.302145,258.816499 369.99012,186.110465 C382.856623,81.0748083 305.703532,23.4231811 203.195686,28.8409875 C111.063078,50.3047747 59.4969389,107.241076 46.754193,186.110465 C46.6357003,254.066277 36.5053399,362.539179 195.43098,335.609755 Z" id="5" opacity="0.600000024"></path>
            </g>
            <path d="M217,208 L124,208 L124,294.886266 C124,302.230553 131.238059,308 138.711049,308 L216.951506,308 L216.951506,208 L217,208 L217,208 Z" id="路径" fill="url(#linearGradient-1)" fill-rule="nonzero"></path>
            <path d="M229,308 L301.413043,308 C308.920597,308 316,302.23198 316,294.892418 L316,208 L229,208 L229,308 L229,308 Z" id="路径" fill="#FFFFFF" fill-rule="nonzero"></path>
            <path d="M278.347502,109 C297.282914,109 304.241483,121.469886 304.241483,132.943248 C304.241483,142.072523 300.403631,146.717242 294.6126,152.36288 L294.300508,152.666313 L315.46098,152.666313 C322.844744,152.666313 328.844398,161.305525 328.997022,168.551575 L329,168.833161 L329,196 L229.777981,196 L229.777981,153.377481 L217.517483,153.377481 L217.51755,196 L112,196 L112,168.833161 C112,161.626175 117.90499,152.893396 125.252051,152.670663 L125.53902,152.666313 L154.273768,152.666313 C148.16714,146.92901 142.912476,142.235546 142.912476,132.943248 C142.912476,121.468619 147.740515,109 166.675993,109 C191.576305,109 213.067718,131.994105 222.819634,146.550335 C232.618748,131.994061 253.399926,109 278.347502,109 Z M278.347435,121.279293 C261.616953,121.279293 244.840016,138.379485 235.181437,152.24595 L234.89094,152.665135 L257.849846,152.665135 C273.661125,152.665135 292.02825,147.639089 292.02825,132.94207 C292.02825,125.688823 286.726321,121.279293 278.347435,121.279293 Z M166.675926,121.279359 C158.249776,121.279359 155.125578,125.499586 155.172313,132.705473 C155.172313,147.44983 172.025053,152.665202 187.836332,152.665202 L187.836332,152.665202 L210.795238,152.665202 C201.139028,138.679351 183.528205,121.279359 166.675926,121.279359 Z" id="形状结合" fill="url(#linearGradient-2)" fill-rule="nonzero"></path>
        </g>
    </g>
</svg>