<?xml version="1.0" encoding="UTF-8"?>
<svg width="480px" height="480px" viewBox="0 0 480 480" version="1.1" xmlns="http://www.w3.org/2000/svg" xmlns:xlink="http://www.w3.org/1999/xlink">
    <!-- Generator: Sketch 57.1 (83088) - https://sketch.com -->
    <title>插画480@1x</title>
    <desc>Created with Sketch.</desc>
    <defs>
        <linearGradient x1="12.2515839%" y1="50%" x2="100%" y2="50%" id="linearGradient-1">
            <stop stop-color="#EEEEEE" stop-opacity="0.190067745" offset="0%"></stop>
            <stop stop-color="#FFFFFF" offset="100%"></stop>
        </linearGradient>
    </defs>
    <g id="插画480" stroke="none" stroke-width="1" fill="none" fill-rule="evenodd">
        <g id="15安全" transform="translate(20.000000, 32.000000)">
            <g id="bg" fill="#8997FD">
                <path d="M231.858238,399.420331 C322.306846,418.825809 436.264537,322.879976 438.197623,207.482922 C432.751123,94.3001304 343.399347,-0.805100111 222.14208,0.00513921086 C100.884813,0.815378533 21.0866157,119.893649 15.8026956,207.482922 C9.6355912,307.280257 108.645644,389.250765 231.858238,399.420331 Z" id="1" opacity="0.200000003"></path>
                <path d="M194.117647,415.317432 C298.441178,419.928417 390.528293,324.223948 388.235294,238.900126 C377.37391,127.203317 301.325863,39.3632784 194.117647,47.0951088 C86.9094309,54.8269393 2.84217094e-14,133.811658 2.84217094e-14,223.512415 C2.85822416,295.058588 90.7620466,402.91958 194.117647,415.317432 Z" id="2" opacity="0.300000012"></path>
                <path d="M207.923106,378.451963 C329.175142,399.419058 412.859954,307.792275 412.38677,207.196851 C419.925706,112.254378 303.590533,9.60386334 196.305556,13.0339825 C83.9119772,13.0339825 14.3454351,98.7560049 15.544671,188.495495 C21.6579476,237.084688 48.4126179,360.782064 207.923106,378.451963 Z" id="3" opacity="0.400000006"></path>
                <path d="M193.181639,374.498124 C301.535358,396.142754 386.312217,368.733672 385.130088,207.216628 C361.237788,87.0872792 272.503537,44.9778587 201.882353,45.6749686 C73.4910599,50.7488836 23.7231619,120.224662 18.6346022,207.216628 C27.247047,258.653672 77.0609229,362.210048 193.181639,374.498124 Z" id="4" opacity="0.400000006"></path>
                <path d="M195.43098,335.609755 C298.698602,321.770596 368.302145,258.816499 369.99012,186.110465 C382.856623,81.0748083 305.703532,23.4231811 203.195686,28.8409875 C111.063078,50.3047747 59.4969389,107.241076 46.754193,186.110465 C46.6357003,254.066277 36.5053399,362.539179 195.43098,335.609755 Z" id="5" opacity="0.600000024"></path>
            </g>
            <path d="M214.999866,206.660735 L214.999866,336 C213.61371,335.625884 212.246332,335.186338 210.902362,334.682893 L210.098828,334.373171 C208.544035,333.753329 207.058244,332.973751 205.665483,332.047064 L205.660659,332.047819 C198.687547,326.763175 191.825315,321.334931 185.07834,315.766621 L182.553636,313.671946 C176.533015,308.665116 170.801444,303.323366 165.38627,297.672347 L164.230723,296.456685 C159.347788,291.272957 154.908536,285.692075 150.95904,279.772549 L150.224253,278.658673 C146.397238,272.719536 143.117171,266.448401 140.423701,259.922032 L139.954473,258.767668 C136.944056,251.192602 134.601588,243.370439 132.953696,235.390046 C131.160867,226.940249 129.801624,217.358948 128.866235,206.660735 L214.999866,206.660735 Z M215,105 L215,191.537581 L127.935777,191.537581 C127.623982,185.175944 127.390135,178.547223 127.234236,171.646571 C127.073623,164.242794 126.995664,156.836611 127.000186,149.430268 C127.000186,147.47709 128.532019,146.217473 131.599749,145.646179 L131.901405,145.593044 C135.325778,145.048085 138.762013,144.580539 142.207467,144.190752 L144.275837,143.966213 C149.768299,143.335993 155.221665,142.403806 160.610952,141.17391 C166.297867,139.903825 171.696496,137.529248 176.806857,134.037208 L177.418715,133.612799 C180.767859,131.394251 183.963949,128.954989 186.985669,126.311496 L187.805643,125.585304 L192.409932,121.452591 L192.409932,121.452591 L197.023135,117.329739 C199.488701,115.122603 202.033052,113.004716 204.651214,110.980197 L205.777789,110.118274 C208.59124,107.982485 211.696772,106.258933 215,105 Z" id="形状结合" fill="url(#linearGradient-1)"></path>
            <path d="M229.004899,206 L314,206 C313.226571,216.738772 312.032587,226.278379 310.413227,234.604189 C308.789024,242.934888 306.70559,250.563621 304.158121,257.490436 L304.15812,257.490439 C301.698137,264.241173 298.51465,270.700917 294.664261,276.75485 L294.664262,276.754849 C290.648938,282.976065 286.157433,288.87117 281.230761,294.386285 L281.230768,294.386277 C275.544201,300.746533 269.554319,306.824207 263.282355,312.597775 L263.282412,312.597722 C255.6974,319.625395 248.056464,326.591465 240.360264,333.495224 L240.360264,333.495224 C236.838137,335.403609 232.978073,336.594487 229,337 L229,206" id="路径" fill="#FFFFFF" fill-rule="nonzero"></path>
            <path d="M270.169429,136.854519 L270.16943,136.85452 C274.457808,139.91814 279.38806,141.975723 284.590112,142.872834 C289.867977,143.800216 294.830253,144.418471 299.481765,144.722768 C304.133277,145.031894 308.051623,145.302381 311.231957,145.534227 C314.407421,145.766072 316,146.649983 316,148.190782 C316,164.23641 315.766938,178.504572 315.300815,191 L229,191 L229,104 C232.874648,104.927382 236.525953,106.656555 239.934477,109.206855 L239.934484,109.20686 C243.429223,111.823453 246.732757,114.683619 249.820139,117.765805 C253.00045,120.929522 256.219612,124.209184 259.472778,127.599923 C262.730792,130.995485 266.299546,134.081928 270.174194,136.854428" id="路径" fill="#FFFFFF" fill-rule="nonzero"></path>
        </g>
    </g>
</svg>