<?xml version="1.0" encoding="UTF-8"?>
<svg width="480px" height="480px" viewBox="0 0 480 480" version="1.1" xmlns="http://www.w3.org/2000/svg" xmlns:xlink="http://www.w3.org/1999/xlink">
    <!-- Generator: Sketch 57.1 (83088) - https://sketch.com -->
    <title>插画480@1x</title>
    <desc>Created with Sketch.</desc>
    <defs>
        <linearGradient x1="-16.2728199%" y1="50%" x2="100%" y2="50%" id="linearGradient-1">
            <stop stop-color="#EEEEEE" stop-opacity="0.190067745" offset="0%"></stop>
            <stop stop-color="#FFFFFF" offset="100%"></stop>
        </linearGradient>
        <linearGradient x1="-34.1618218%" y1="50%" x2="100%" y2="50%" id="linearGradient-2">
            <stop stop-color="#EEEEEE" stop-opacity="0.190067745" offset="0%"></stop>
            <stop stop-color="#FFFFFF" offset="100%"></stop>
        </linearGradient>
    </defs>
    <g id="插画480" stroke="none" stroke-width="1" fill="none" fill-rule="evenodd">
        <g id="20公告" transform="translate(20.000000, 32.000000)">
            <g id="bg" fill="#FBD17E">
                <path d="M231.858238,399.420331 C322.306846,418.825809 436.264537,322.879976 438.197623,207.482922 C432.751123,94.3001304 343.399347,-0.805100111 222.14208,0.00513921086 C100.884813,0.815378533 21.0866157,119.893649 15.8026956,207.482922 C9.6355912,307.280257 108.645644,389.250765 231.858238,399.420331 Z" id="1" opacity="0.200000003"></path>
                <path d="M194.117647,415.317432 C298.441178,419.928417 390.528293,324.223948 388.235294,238.900126 C377.37391,127.203317 301.325863,39.3632784 194.117647,47.0951088 C86.9094309,54.8269393 2.84217094e-14,133.811658 2.84217094e-14,223.512415 C2.85822416,295.058588 90.7620466,402.91958 194.117647,415.317432 Z" id="2" opacity="0.300000012"></path>
                <path d="M207.923106,378.451963 C329.175142,399.419058 412.859954,307.792275 412.38677,207.196851 C419.925706,112.254378 303.590533,9.60386334 196.305556,13.0339825 C83.9119772,13.0339825 14.3454351,98.7560049 15.544671,188.495495 C21.6579476,237.084688 48.4126179,360.782064 207.923106,378.451963 Z" id="3" opacity="0.400000006"></path>
                <path d="M193.181639,374.498124 C301.535358,396.142754 386.312217,368.733672 385.130088,207.216628 C361.237788,87.0872792 272.503537,44.9778587 201.882353,45.6749686 C73.4910599,50.7488836 23.7231619,120.224662 18.6346022,207.216628 C27.247047,258.653672 77.0609229,362.210048 193.181639,374.498124 Z" id="4" opacity="0.400000006"></path>
                <path d="M195.43098,335.609755 C298.698602,321.770596 368.302145,258.816499 369.99012,186.110465 C382.856623,81.0748083 305.703532,23.4231811 203.195686,28.8409875 C111.063078,50.3047747 59.4969389,107.241076 46.754193,186.110465 C46.6357003,254.066277 36.5053399,362.539179 195.43098,335.609755 Z" id="5" opacity="0.600000024"></path>
            </g>
            <path d="M276.79852,149.177441 C311.733827,183.815273 311.733827,240.17752 276.79852,274.813284 C275.397178,276.213978 273.489025,277 271.499286,276.997931 L271.499286,277 C268.466607,277 265.732372,275.189038 264.571504,272.410862 C263.410636,269.632686 264.05174,266.434651 266.195879,264.307944 C295.283251,235.468943 295.283251,188.534194 266.195879,159.691056 C263.26804,156.787802 263.26804,152.080696 266.195879,149.177441 C269.123717,146.274186 273.870681,146.274186 276.79852,149.177441 Z M250.645192,172.591089 C271.918269,193.617232 271.918269,227.83593 250.645192,248.858016 C249.266022,250.232921 247.386954,251.004389 245.428003,251 C242.445528,251 239.75687,249.223901 238.615061,246.500892 C237.473252,243.777883 238.103,240.643271 240.210814,238.557925 C255.737185,223.207177 255.737185,198.2399 240.210814,182.891181 C238.317035,181.055487 237.566782,178.356014 238.246064,175.821841 C238.925346,173.287668 240.929481,171.309325 243.494463,170.640985 C246.059446,169.972646 248.789998,170.717306 250.645192,172.591089 Z" id="形状结合" fill="url(#linearGradient-1)"></path>
            <path d="M222,130.220385 L221.997093,293.779544 C221.997093,300.003758 218.03521,301.877964 213.189678,297.932877 L170.530397,263.173302 C165.684866,259.231106 161.728796,250.915764 161.728796,244.679981 L161.728796,179.314163 C161.728796,173.087057 165.690679,164.76593 170.530397,160.820843 L213.192585,126.069945 C218.038117,122.121965 222,123.993278 222,130.220385 Z M155.200263,180.549172 L155.200263,243.453649 C155.200263,249.683648 150.171607,253.808057 144.029671,252.630894 L127.170593,249.379957 C121.025749,248.197009 116,242.149225 116,235.907657 L116,188.098057 C116,181.868058 121.028656,175.808704 127.170593,174.619972 L144.029671,171.377712 C150.174514,170.188979 155.200263,174.319174 155.200263,180.549172 Z" id="形状结合" fill="url(#linearGradient-2)"></path>
        </g>
    </g>
</svg>