<?xml version="1.0" encoding="UTF-8"?>
<svg width="480px" height="480px" viewBox="0 0 480 480" version="1.1" xmlns="http://www.w3.org/2000/svg" xmlns:xlink="http://www.w3.org/1999/xlink">
    <!-- Generator: Sketch 57.1 (83088) - https://sketch.com -->
    <title>插画480@1x</title>
    <desc>Created with Sketch.</desc>
    <defs>
        <linearGradient x1="50%" y1="-7.94586545%" x2="50%" y2="100%" id="linearGradient-1">
            <stop stop-color="#EEEEEE" stop-opacity="0.190067745" offset="0%"></stop>
            <stop stop-color="#FFFFFF" offset="100%"></stop>
        </linearGradient>
        <linearGradient x1="12.2515839%" y1="50%" x2="122.659674%" y2="50%" id="linearGradient-2">
            <stop stop-color="#EEEEEE" stop-opacity="0.190067745" offset="0%"></stop>
            <stop stop-color="#FFFFFF" offset="100%"></stop>
        </linearGradient>
        <linearGradient x1="12.2515839%" y1="50%" x2="100%" y2="50%" id="linearGradient-3">
            <stop stop-color="#EEEEEE" stop-opacity="0.190067745" offset="0%"></stop>
            <stop stop-color="#FFFFFF" offset="100%"></stop>
        </linearGradient>
    </defs>
    <g id="插画480" stroke="none" stroke-width="1" fill="none" fill-rule="evenodd">
        <g id="21信息" transform="translate(20.000000, 32.000000)">
            <g id="bg" fill="#6BB2FF">
                <path d="M231.858238,399.420331 C322.306846,418.825809 436.264537,322.879976 438.197623,207.482922 C432.751123,94.3001304 343.399347,-0.805100111 222.14208,0.00513921086 C100.884813,0.815378533 21.0866157,119.893649 15.8026956,207.482922 C9.6355912,307.280257 108.645644,389.250765 231.858238,399.420331 Z" id="1" opacity="0.200000003"></path>
                <path d="M194.117647,415.317432 C298.441178,419.928417 390.528293,324.223948 388.235294,238.900126 C377.37391,127.203317 301.325863,39.3632784 194.117647,47.0951088 C86.9094309,54.8269393 0,133.811658 0,223.512415 C2.85822416,295.058588 90.7620466,402.91958 194.117647,415.317432 Z" id="2" opacity="0.300000012"></path>
                <path d="M207.923106,378.451963 C329.175142,399.419058 412.859954,307.792275 412.38677,207.196851 C419.925706,112.254378 303.590533,9.60386334 196.305556,13.0339825 C83.9119772,13.0339825 14.3454351,98.7560049 15.544671,188.495495 C21.6579476,237.084688 48.4126179,360.782064 207.923106,378.451963 Z" id="3" opacity="0.400000006"></path>
                <path d="M193.181639,374.498124 C301.535358,396.142754 386.312217,368.733672 385.130088,207.216628 C361.237788,87.0872792 272.503537,44.9778587 201.882353,45.6749686 C73.4910599,50.7488836 23.7231619,120.224662 18.6346022,207.216628 C27.247047,258.653672 77.0609229,362.210048 193.181639,374.498124 Z" id="4" opacity="0.400000006"></path>
                <path d="M195.43098,335.609755 C298.698602,321.770596 368.302145,258.816499 369.99012,186.110465 C382.856623,81.0748083 305.703532,23.4231811 203.195686,28.8409875 C111.063078,50.3047747 59.4969389,107.241076 46.754193,186.110465 C46.6357003,254.066277 36.5053399,362.539179 195.43098,335.609755 Z" id="5" opacity="0.600000024"></path>
            </g>
            <path d="M149,282.001759 L149,317.917286 C149,322.922429 154.698845,325.77648 158.698667,322.774009 L213,282" id="路径" fill="url(#linearGradient-1)"></path>
            <rect id="矩形" fill="url(#linearGradient-2)" x="124" y="179" width="145" height="54"></rect>
            <path d="M266.773298,137 L267.206775,137.003516 C281.341153,137.232955 292.769402,148.662728 292.996554,162.797322 L293,163.226462 L293,254.772 C293,269.103905 281.507173,280.762979 267.207472,280.994727 L266.773298,280.998243 L148.999121,281 L127.224506,281 C112.894644,281 101.23527,269.48403 101.003516,255.183996 L101,254.749818 L101,163.226682 C101,148.894777 112.516075,137.235273 126.791094,137.003516 L127.224506,137 L266.773298,137 Z M149.42542,197.698796 C142.800989,197.698796 137.425805,203.072834 137.425805,209.698302 C137.425805,216.32377 142.799891,221.698906 149.42542,221.698906 C156.050949,221.698906 161.424816,216.322672 161.424816,209.698302 C161.424816,203.073932 156.049851,197.698796 149.42542,197.698796 Z M197.42564,197.698796 C190.801209,197.698796 185.426024,203.072834 185.426024,209.698302 C185.426024,216.32377 190.800111,221.698906 197.42564,221.698906 C204.051169,221.698906 209.425255,216.322672 209.425255,209.698302 C209.425255,203.073932 204.050071,197.698796 197.42564,197.698796 Z M245.425859,197.698796 C238.80033,197.698796 233.426463,203.072834 233.426463,209.698302 C233.426463,216.32377 238.80033,221.698906 245.425859,221.698906 L245.425859,221.698906 C252.05029,221.698906 257.426573,216.322672 257.426573,209.698302 C257.426573,203.073932 252.051388,197.698796 245.425859,197.698796 Z" id="形状结合" fill="#FFFFFF" fill-rule="nonzero"></path>
            <path d="M274.848007,129.683463 C289.831842,129.683463 301.987365,141.672138 301.987365,156.450788 L301.987365,248 C315.443327,246.890339 326,235.788092 326,222.220317 L326,140.684713 C326,121.543058 310.240912,106 290.83321,106 L160.13777,106 C146.40603,106 135.150794,116.411743 134,129.683463 L274.848007,129.683463 Z" id="路径" fill="url(#linearGradient-3)"></path>
        </g>
    </g>
</svg>