<?xml version="1.0" encoding="UTF-8"?>
<svg width="480px" height="480px" viewBox="0 0 480 480" version="1.1" xmlns="http://www.w3.org/2000/svg" xmlns:xlink="http://www.w3.org/1999/xlink">
    <!-- Generator: Sketch 57.1 (83088) - https://sketch.com -->
    <title>插画480@1x</title>
    <desc>Created with Sketch.</desc>
    <defs>
        <linearGradient x1="12.2515839%" y1="50%" x2="100%" y2="50%" id="linearGradient-1">
            <stop stop-color="#EEEEEE" stop-opacity="0.190067745" offset="0%"></stop>
            <stop stop-color="#FFFFFF" offset="100%"></stop>
        </linearGradient>
        <linearGradient x1="-13.0921165%" y1="50%" x2="50%" y2="50%" id="linearGradient-2">
            <stop stop-color="#EEEEEE" stop-opacity="0.190067745" offset="0%"></stop>
            <stop stop-color="#FFFFFF" offset="100%"></stop>
        </linearGradient>
    </defs>
    <g id="插画480" stroke="none" stroke-width="1" fill="none" fill-rule="evenodd">
        <g id="7视频" transform="translate(20.000000, 32.000000)">
            <g id="bg" fill="#FE5F57">
                <path d="M231.858238,399.420331 C322.306846,418.825809 436.264537,322.879976 438.197623,207.482922 C432.751123,94.3001304 343.399347,-0.805100111 222.14208,0.00513921086 C100.884813,0.815378533 21.0866157,119.893649 15.8026956,207.482922 C9.6355912,307.280257 108.645644,389.250765 231.858238,399.420331 Z" id="1" opacity="0.200000003"></path>
                <path d="M194.117647,415.317432 C298.441178,419.928417 390.528293,324.223948 388.235294,238.900126 C377.37391,127.203317 301.325863,39.3632784 194.117647,47.0951088 C86.9094309,54.8269393 2.84217094e-14,133.811658 2.84217094e-14,223.512415 C2.85822416,295.058588 90.7620466,402.91958 194.117647,415.317432 Z" id="2" opacity="0.300000012"></path>
                <path d="M207.923106,378.451963 C329.175142,399.419058 412.859954,307.792275 412.38677,207.196851 C419.925706,112.254378 303.590533,9.60386334 196.305556,13.0339825 C83.9119772,13.0339825 14.3454351,98.7560049 15.544671,188.495495 C21.6579476,237.084688 48.4126179,360.782064 207.923106,378.451963 Z" id="3" opacity="0.400000006"></path>
                <path d="M193.181639,374.498124 C301.535358,396.142754 386.312217,368.733672 385.130088,207.216628 C361.237788,87.0872792 272.503537,44.9778587 201.882353,45.6749686 C73.4910599,50.7488836 23.7231619,120.224662 18.6346022,207.216628 C27.247047,258.653672 77.0609229,362.210048 193.181639,374.498124 Z" id="4" opacity="0.400000006"></path>
                <path d="M195.43098,335.609755 C298.698602,321.770596 368.302145,258.816499 369.99012,186.110465 C382.856623,81.0748083 305.703532,23.4231811 203.195686,28.8409875 C111.063078,50.3047747 59.4969389,107.241076 46.754193,186.110465 C46.6357003,254.066277 36.5053399,362.539179 195.43098,335.609755 Z" id="5" opacity="0.600000024"></path>
            </g>
            <rect id="矩形" fill="url(#linearGradient-1)" x="179" y="184" width="85" height="93"></rect>
            <path d="M245.897436,114 C244.984351,116.122581 244.17272,117.941935 243.361089,119.76129 C237.578218,132.496774 231.795348,145.131183 226.215385,157.866667 C225.200846,160.191398 223.983399,161 221.447053,161 C213.432197,160.797849 205.315887,160.898925 196.692308,160.898925 C202.880994,145.030108 208.968226,129.464516 214.954005,114 L245.897436,114 Z M287.333333,114.025147 C285.876945,117.445158 284.628612,120.563403 283.380279,123.581059 C278.69903,134.947566 273.809725,146.213483 269.232504,157.680578 C268.192226,160.29588 266.839866,161 264.135144,161 C255.604868,160.798823 247.17862,160.899411 238.128205,160.899411 C240.624871,154.76351 242.809454,149.029963 245.098065,143.397004 C248.635008,134.545211 252.067924,125.794007 255.708896,116.942215 C256.229035,115.735152 257.789451,114.125736 258.829728,114.125736 C268.192226,113.924559 277.450697,114.025147 287.333333,114.025147 Z M302.123496,116.611111 C310.914495,120.118134 316.472023,126.130173 319.200265,134.446827 C321.928506,143.064083 320.715954,151.981941 320.817,161 L284.74359,161 C290.604256,146.070103 296.26283,131.440808 302.123496,116.611111 Z M176.318179,114 C184.702959,114.301766 193.187558,114.201177 201.871795,114.201177 C201.572338,115.207063 201.47252,116.011771 201.173063,116.715891 C195.183935,130.697699 189.294625,144.578919 183.205677,158.460139 C182.706583,159.566613 181.009663,160.874264 179.911657,160.874264 C171.826333,161.075441 163.741009,160.974853 155.25641,160.974853 C155.655685,159.667202 155.955142,158.560728 156.354417,157.554842 C161.544995,144.176565 166.735573,130.798288 171.826333,117.319422 C172.724702,115.005886 173.72289,114 176.318179,114 Z M160.435897,114.134358 C159.811236,115.645888 159.394794,116.855111 158.874243,118.064334 C152.939956,131.164255 147.005669,144.364945 141.279603,157.565635 C140.13439,160.286388 138.676846,161.092536 135.761758,160.991768 C130.556243,160.790231 125.350728,160.991768 119,160.991768 C119.416441,152.527204 119.10411,144.364945 120.561654,136.605761 C122.956191,123.808146 134.200103,115.041276 148.046772,114.134358 C152.002964,113.832052 155.959155,114.134358 160.435897,114.134358 Z" id="形状结合" fill="url(#linearGradient-2)"></path>
            <path d="M320.486959,176 C320.692175,177.637222 320.897392,179.172118 320.897392,180.707014 C320.897392,212.735176 320.897392,244.763337 321,276.893825 C321,293.266049 307.353106,305.954522 289.601883,305.954522 C257.177683,306.056848 224.856091,305.954522 192.431892,305.954522 C178.374565,305.954522 164.419846,306.056848 150.362519,305.954522 C132.098254,305.749869 119.272226,293.573028 119.169618,275.35893 C118.861793,243.023789 119.067009,210.790974 119.067009,178.455833 C119.067009,177.841875 119.169618,177.12559 119.272226,176 L119.272226,176 Z M205.076663,194.2 C197.149408,194.408365 191.590034,200.450942 191.590034,207.847891 C191.487083,223.058518 191.487083,238.269144 191.590034,253.479771 C191.692985,264.83565 201.473365,270.461498 211.150794,264.731467 C223.60791,257.438701 235.550269,249.416658 248.316238,242.853169 C259.023181,237.331503 258.714327,224.829618 248.522141,218.995405 C235.65322,211.598457 223.093153,203.888961 210.327183,196.38783 C208.371107,195.241824 206.106177,194.616729 205.076663,194.2 Z" id="形状结合" fill="#FFFFFF" fill-rule="nonzero"></path>
        </g>
    </g>
</svg>