<?xml version="1.0" encoding="UTF-8"?>
<svg width="480px" height="480px" viewBox="0 0 480 480" version="1.1" xmlns="http://www.w3.org/2000/svg" xmlns:xlink="http://www.w3.org/1999/xlink">
    <!-- Generator: Sketch 57.1 (83088) - https://sketch.com -->
    <title>插画480@1x</title>
    <desc>Created with Sketch.</desc>
    <defs>
        <linearGradient x1="12.2515839%" y1="50%" x2="100%" y2="50%" id="linearGradient-1">
            <stop stop-color="#EEEEEE" stop-opacity="0.190067745" offset="0%"></stop>
            <stop stop-color="#FFFFFF" offset="100%"></stop>
        </linearGradient>
    </defs>
    <g id="插画480" stroke="none" stroke-width="1" fill="none" fill-rule="evenodd">
        <g id="8电话" transform="translate(20.000000, 32.000000)">
            <g id="bg" fill="#71E787">
                <path d="M231.858238,399.420331 C322.306846,418.825809 436.264537,322.879976 438.197623,207.482922 C432.751123,94.3001304 343.399347,-0.805100111 222.14208,0.00513921086 C100.884813,0.815378533 21.0866157,119.893649 15.8026956,207.482922 C9.6355912,307.280257 108.645644,389.250765 231.858238,399.420331 Z" id="1" opacity="0.200000003"></path>
                <path d="M194.117647,415.317432 C298.441178,419.928417 390.528293,324.223948 388.235294,238.900126 C377.37391,127.203317 301.325863,39.3632784 194.117647,47.0951088 C86.9094309,54.8269393 2.84217094e-14,133.811658 2.84217094e-14,223.512415 C2.85822416,295.058588 90.7620466,402.91958 194.117647,415.317432 Z" id="2" opacity="0.300000012"></path>
                <path d="M207.923106,378.451963 C329.175142,399.419058 412.859954,307.792275 412.38677,207.196851 C419.925706,112.254378 303.590533,9.60386334 196.305556,13.0339825 C83.9119772,13.0339825 14.3454351,98.7560049 15.544671,188.495495 C21.6579476,237.084688 48.4126179,360.782064 207.923106,378.451963 Z" id="3" opacity="0.400000006"></path>
                <path d="M193.181639,374.498124 C301.535358,396.142754 386.312217,368.733672 385.130088,207.216628 C361.237788,87.0872792 272.503537,44.9778587 201.882353,45.6749686 C73.4910599,50.7488836 23.7231619,120.224662 18.6346022,207.216628 C27.247047,258.653672 77.0609229,362.210048 193.181639,374.498124 Z" id="4" opacity="0.400000006"></path>
                <path d="M195.43098,335.609755 C298.698602,321.770596 368.302145,258.816499 369.99012,186.110465 C382.856623,81.0748083 305.703532,23.4231811 203.195686,28.8409875 C111.063078,50.3047747 59.4969389,107.241076 46.754193,186.110465 C46.6357003,254.066277 36.5053399,362.539179 195.43098,335.609755 Z" id="5" opacity="0.600000024"></path>
            </g>
            <path d="M189.144775,182.999687 C196.618869,175.749908 197.210874,163.952284 190.500097,155.990476 L169.57167,129.659037 C162.637376,120.959401 149.999856,119.449295 141.211563,126.270177 C140.995998,126.498552 140.753239,126.69962 140.488724,126.868876 C140.1386,127.0948 139.87883,127.252947 139.87883,127.670906 L121.649752,145.869082 C104.087041,163.43467 129.081433,210.686669 174.32659,255.939241 C219.571748,301.191812 266.127049,325.501232 283.68976,308.624711 L301.918838,290.38135 C305.801937,286.68608 308,281.559796 308,276.198973 C308,270.838149 305.801937,265.711866 301.918838,262.016595 L300.586105,260.661052 L274.236391,239.729196 C266.27779,233.011677 254.477738,233.603998 247.231605,241.08474 L235.756548,252.561677 C223.997404,245.540786 213.112638,237.149307 203.330476,227.56319 C193.749719,217.783085 185.363368,206.900276 178.347378,195.1431 L189.144775,182.999687 Z" id="路径" fill="#FFFFFF" fill-rule="nonzero"></path>
            <path d="M226.849954,137.01242 C264.42149,137.143651 294.84843,167.561213 294.985964,205.12743 C295.108233,206.975375 294.427211,208.786223 293.117476,210.095773 C291.807741,211.405324 289.996637,212.086249 288.148432,211.963998 L288.171224,211.986787 C286.324023,212.105228 284.515189,211.423072 283.206337,210.114405 C281.897486,208.805738 281.215233,206.997159 281.333691,205.150218 C281.208771,175.117663 256.88677,150.804177 226.849954,150.685557 C225.003755,150.800215 223.197174,150.116837 221.889198,148.809046 C220.581222,147.501254 219.897748,145.694928 220.012422,143.848989 C219.897748,142.00305 220.581222,140.196723 221.889198,138.888931 C223.197174,137.58114 225.003755,136.897762 226.849954,137.01242 Z M227.051203,162.875658 C250.252819,162.959211 269.040696,181.729167 269.124329,204.908651 C269.246253,206.808088 268.544038,208.668073 267.196889,210.013937 C265.84974,211.359801 263.987979,212.061346 262.086728,211.939539 L262.133645,211.986411 C260.232394,212.108219 258.370634,211.406674 257.023484,210.06081 C255.676335,208.714946 254.97412,206.854961 255.096044,204.955523 C255.03816,189.505577 242.515901,176.995263 227.051203,176.937434 C225.149952,177.059241 223.288191,176.357696 221.941042,175.011832 C220.593893,173.665968 219.891678,171.805983 220.013602,169.906546 C219.891678,168.007108 220.593893,166.147123 221.941042,164.801259 C223.288191,163.455395 225.149952,162.75385 227.051203,162.875658 Z" id="形状结合" fill="url(#linearGradient-1)"></path>
            <path d="M177.748384,175.029246 C180.329237,172.759795 180.631006,168.846947 178.428652,166.208619 L157.431026,139.780749 C156.378015,138.304664 154.766589,137.324027 152.971682,137.067005 C151.176774,136.809984 149.354894,137.298988 147.929941,138.420241 L128.950445,157.399329 C120.129628,166.197281 141.830198,208.905898 181.852671,248.213244 C221.875144,287.52059 263.859059,309.900948 272.668538,301.091658 L290.967765,282.792825 L291.194522,282.566073 C292.391783,281.309428 293.040562,279.628508 292.998034,277.893364 C292.955505,276.158221 292.225153,274.511102 290.967765,273.314618 C290.970866,273.133271 290.900191,272.958438 290.771938,272.830188 C290.643684,272.701937 290.468848,272.631263 290.287497,272.634364 L263.847721,250.945598 C261.195978,248.785529 257.316081,249.084743 255.026904,251.625852 L239.448752,267.215007 C237.288731,269.330107 234.038633,269.873287 231.308203,268.575515 C216.635059,260.569768 203.174667,250.51859 191.331082,238.7237 C179.536162,226.88982 169.491523,213.432355 161.5013,198.758775 C160.190766,196.034006 160.725488,192.78043 162.839162,190.618401 L177.748384,175.029246 Z" id="路径" fill="#FFFFFF" fill-rule="nonzero"></path>
        </g>
    </g>
</svg>